<svg width="44" height="30" viewBox="0 0 44 30" fill="none" xmlns="http://www.w3.org/2000/svg">
<g filter="url(#filter0_d_3_38)">
<mask id="path-1-outside-1_3_38" maskUnits="userSpaceOnUse" x="4" y="0" width="36" height="22" fill="black">
<rect fill="white" x="4" width="36" height="22"/>
<path d="M6 5C6 3.34315 7.34315 2 9 2H35C36.6569 2 38 3.34315 38 5V17C38 18.6569 36.6569 20 35 20H9C7.34315 20 6 18.6569 6 17V5Z"/>
</mask>
<path d="M9 4H35V0H9V4ZM36 5V17H40V5H36ZM35 18H9V22H35V18ZM8 17V5H4V17H8ZM9 18C8.44772 18 8 17.5523 8 17H4C4 19.7614 6.23858 22 9 22V18ZM36 17C36 17.5523 35.5523 18 35 18V22C37.7614 22 40 19.7614 40 17H36ZM35 4C35.5523 4 36 4.44772 36 5H40C40 2.23858 37.7614 0 35 0V4ZM9 0C6.23858 0 4 2.23858 4 5H8C8 4.44772 8.44772 4 9 4V0Z" fill="white" mask="url(#path-1-outside-1_3_38)"/>
</g>
<path d="M14.905 15H13.959V9.511C13.959 9.29833 13.959 9.11867 13.959 8.972C13.9663 8.82533 13.9737 8.68967 13.981 8.565C13.9883 8.433 13.9957 8.29733 14.003 8.158C13.8857 8.27533 13.7793 8.37433 13.684 8.455C13.5887 8.53567 13.4677 8.63833 13.321 8.763L12.485 9.445L11.979 8.796L14.102 7.146H14.905V15ZM17.8999 11.645C17.8999 11.1903 17.9293 10.743 17.9879 10.303C18.0539 9.863 18.1639 9.44867 18.3179 9.06C18.4719 8.664 18.6846 8.31567 18.9559 8.015C19.2273 7.707 19.5683 7.46867 19.9789 7.3C20.3969 7.124 20.9029 7.036 21.4969 7.036C21.6509 7.036 21.8196 7.04333 22.0029 7.058C22.1936 7.07267 22.3476 7.09833 22.4649 7.135V7.96C22.3329 7.916 22.1826 7.883 22.0139 7.861C21.8526 7.839 21.6876 7.828 21.5189 7.828C21.0129 7.828 20.5913 7.91233 20.2539 8.081C19.9166 8.24967 19.6489 8.48067 19.4509 8.774C19.2603 9.06733 19.1209 9.40467 19.0329 9.786C18.9449 10.1673 18.8899 10.5743 18.8679 11.007H18.9339C19.0439 10.831 19.1833 10.6733 19.3519 10.534C19.5206 10.3947 19.7223 10.2847 19.9569 10.204C20.1989 10.1233 20.4776 10.083 20.7929 10.083C21.2476 10.083 21.6436 10.1783 21.9809 10.369C22.3256 10.5523 22.5933 10.8237 22.7839 11.183C22.9746 11.535 23.0699 11.964 23.0699 12.47C23.0699 13.0127 22.9673 13.482 22.7619 13.878C22.5566 14.274 22.2669 14.5783 21.8929 14.791C21.5263 15.0037 21.0863 15.11 20.5729 15.11C20.1989 15.11 19.8506 15.0403 19.5279 14.901C19.2053 14.7617 18.9193 14.549 18.6699 14.263C18.4279 13.977 18.2373 13.6177 18.0979 13.185C17.9659 12.745 17.8999 12.2317 17.8999 11.645ZM20.5619 14.296C21.0239 14.296 21.3979 14.1493 21.6839 13.856C21.9699 13.5553 22.1129 13.0933 22.1129 12.47C22.1129 11.9713 21.9846 11.5753 21.7279 11.282C21.4786 10.9887 21.1009 10.842 20.5949 10.842C20.2503 10.842 19.9496 10.9153 19.6929 11.062C19.4363 11.2013 19.2346 11.381 19.0879 11.601C18.9486 11.821 18.8789 12.0483 18.8789 12.283C18.8789 12.525 18.9119 12.7633 18.9779 12.998C19.0513 13.2327 19.1576 13.449 19.2969 13.647C19.4436 13.845 19.6196 14.0027 19.8249 14.12C20.0376 14.2373 20.2833 14.296 20.5619 14.296ZM24.3818 14.406C24.3818 14.1347 24.4478 13.944 24.5798 13.834C24.7118 13.724 24.8695 13.669 25.0528 13.669C25.2435 13.669 25.4048 13.724 25.5368 13.834C25.6762 13.944 25.7458 14.1347 25.7458 14.406C25.7458 14.67 25.6762 14.8607 25.5368 14.978C25.4048 15.0953 25.2435 15.154 25.0528 15.154C24.8695 15.154 24.7118 15.0953 24.5798 14.978C24.4478 14.8607 24.3818 14.67 24.3818 14.406ZM24.3818 9.698C24.3818 9.41933 24.4478 9.225 24.5798 9.115C24.7118 9.005 24.8695 8.95 25.0528 8.95C25.2435 8.95 25.4048 9.005 25.5368 9.115C25.6762 9.225 25.7458 9.41933 25.7458 9.698C25.7458 9.962 25.6762 10.1527 25.5368 10.27C25.4048 10.3873 25.2435 10.446 25.0528 10.446C24.8695 10.446 24.7118 10.3873 24.5798 10.27C24.4478 10.1527 24.3818 9.962 24.3818 9.698ZM32.2532 10.501C32.2532 10.9483 32.2202 11.3957 32.1542 11.843C32.0955 12.283 31.9892 12.701 31.8352 13.097C31.6812 13.4857 31.4685 13.834 31.1972 14.142C30.9259 14.4427 30.5812 14.681 30.1632 14.857C29.7452 15.0257 29.2392 15.11 28.6452 15.11C28.4985 15.11 28.3262 15.099 28.1282 15.077C27.9375 15.0623 27.7799 15.0367 27.6552 15V14.175C27.7872 14.219 27.9412 14.2557 28.1172 14.285C28.2932 14.307 28.4619 14.318 28.6232 14.318C29.1365 14.318 29.5582 14.2337 29.8882 14.065C30.2255 13.8963 30.4932 13.669 30.6912 13.383C30.8892 13.0897 31.0322 12.7523 31.1202 12.371C31.2082 11.9823 31.2595 11.5753 31.2742 11.15H31.2082C31.0982 11.3187 30.9589 11.4727 30.7902 11.612C30.6215 11.7513 30.4162 11.8613 30.1742 11.942C29.9395 12.0227 29.6609 12.063 29.3382 12.063C28.8909 12.063 28.4949 11.9713 28.1502 11.788C27.8129 11.5973 27.5489 11.326 27.3582 10.974C27.1749 10.622 27.0832 10.193 27.0832 9.687C27.0832 9.137 27.1859 8.664 27.3912 8.268C27.6039 7.872 27.8972 7.56767 28.2712 7.355C28.6452 7.14233 29.0852 7.036 29.5912 7.036C29.9652 7.036 30.3135 7.10933 30.6362 7.256C30.9589 7.39533 31.2412 7.608 31.4832 7.894C31.7252 8.18 31.9122 8.53933 32.0442 8.972C32.1835 9.40467 32.2532 9.91433 32.2532 10.501ZM29.5912 7.85C29.1365 7.85 28.7625 8.00033 28.4692 8.301C28.1832 8.60167 28.0402 9.06 28.0402 9.676C28.0402 10.182 28.1612 10.5817 28.4032 10.875C28.6525 11.161 29.0339 11.304 29.5472 11.304C29.8992 11.304 30.2035 11.2343 30.4602 11.095C30.7169 10.9483 30.9149 10.765 31.0542 10.545C31.2009 10.325 31.2742 10.0977 31.2742 9.863C31.2742 9.62833 31.2375 9.39367 31.1642 9.159C31.0982 8.917 30.9955 8.697 30.8562 8.499C30.7169 8.301 30.5409 8.14333 30.3282 8.026C30.1155 7.90867 29.8699 7.85 29.5912 7.85Z" fill="white"/>
<defs>
<filter id="filter0_d_3_38" x="0" y="0" width="44" height="30" filterUnits="userSpaceOnUse" color-interpolation-filters="sRGB">
<feFlood flood-opacity="0" result="BackgroundImageFix"/>
<feColorMatrix in="SourceAlpha" type="matrix" values="0 0 0 0 0 0 0 0 0 0 0 0 0 0 0 0 0 0 127 0" result="hardAlpha"/>
<feOffset dy="4"/>
<feGaussianBlur stdDeviation="2"/>
<feComposite in2="hardAlpha" operator="out"/>
<feColorMatrix type="matrix" values="0 0 0 0 0 0 0 0 0 0 0 0 0 0 0 0 0 0 0.25 0"/>
<feBlend mode="normal" in2="BackgroundImageFix" result="effect1_dropShadow_3_38"/>
<feBlend mode="normal" in="SourceGraphic" in2="effect1_dropShadow_3_38" result="shape"/>
</filter>
</defs>
</svg>
