<svg width="36" height="30" viewBox="0 0 36 30" fill="none" xmlns="http://www.w3.org/2000/svg">
<g filter="url(#filter0_d_3_39)">
<mask id="path-1-outside-1_3_39" maskUnits="userSpaceOnUse" x="4" y="0" width="28" height="22" fill="black">
<rect fill="white" x="4" width="28" height="22"/>
<path d="M6 5C6 3.34315 7.34315 2 9 2H27C28.6569 2 30 3.34315 30 5V17C30 18.6569 28.6569 20 27 20H9C7.34315 20 6 18.6569 6 17V5Z"/>
</mask>
<path d="M9 4H27V0H9V4ZM28 5V17H32V5H28ZM27 18H9V22H27V18ZM8 17V5H4V17H8ZM9 18C8.44772 18 8 17.5523 8 17H4C4 19.7614 6.23858 22 9 22V18ZM28 17C28 17.5523 27.5523 18 27 18V22C29.7614 22 32 19.7614 32 17H28ZM27 4C27.5523 4 28 4.44772 28 5H32C32 2.23858 29.7614 0 27 0V4ZM9 0C6.23858 0 4 2.23858 4 5H8C8 4.44772 8.44772 4 9 4V0Z" fill="white" mask="url(#path-1-outside-1_3_39)"/>
</g>
<path d="M16.072 13.218H14.928V15H13.993V13.218H10.231V12.393L13.927 7.102H14.928V12.349H16.072V13.218ZM13.993 9.874C13.993 9.68333 13.993 9.511 13.993 9.357C14.0003 9.19567 14.0077 9.04533 14.015 8.906C14.0223 8.76667 14.026 8.63467 14.026 8.51C14.0333 8.378 14.0407 8.25333 14.048 8.136H14.004C13.9453 8.27533 13.872 8.42567 13.784 8.587C13.696 8.74833 13.6117 8.884 13.531 8.994L11.177 12.349H13.993V9.874ZM17.0869 14.406C17.0869 14.1347 17.1529 13.944 17.2849 13.834C17.4169 13.724 17.5746 13.669 17.7579 13.669C17.9486 13.669 18.1099 13.724 18.2419 13.834C18.3813 13.944 18.4509 14.1347 18.4509 14.406C18.4509 14.67 18.3813 14.8607 18.2419 14.978C18.1099 15.0953 17.9486 15.154 17.7579 15.154C17.5746 15.154 17.4169 15.0953 17.2849 14.978C17.1529 14.8607 17.0869 14.67 17.0869 14.406ZM17.0869 9.698C17.0869 9.41933 17.1529 9.225 17.2849 9.115C17.4169 9.005 17.5746 8.95 17.7579 8.95C17.9486 8.95 18.1099 9.005 18.2419 9.115C18.3813 9.225 18.4509 9.41933 18.4509 9.698C18.4509 9.962 18.3813 10.1527 18.2419 10.27C18.1099 10.3873 17.9486 10.446 17.7579 10.446C17.5746 10.446 17.4169 10.3873 17.2849 10.27C17.1529 10.1527 17.0869 9.962 17.0869 9.698ZM24.6613 8.983C24.6613 9.335 24.5953 9.63933 24.4633 9.896C24.3313 10.1527 24.1406 10.3617 23.8913 10.523C23.6493 10.6843 23.3633 10.798 23.0333 10.864V10.908C23.6639 10.9813 24.1333 11.1793 24.4413 11.502C24.7493 11.8247 24.9033 12.2463 24.9033 12.767C24.9033 13.2217 24.7969 13.6287 24.5843 13.988C24.3716 14.34 24.0416 14.615 23.5943 14.813C23.1543 15.011 22.5859 15.11 21.8893 15.11C21.4786 15.11 21.0973 15.077 20.7453 15.011C20.3933 14.9523 20.0559 14.8423 19.7333 14.681V13.779C20.0633 13.9403 20.4189 14.0687 20.8003 14.164C21.1816 14.252 21.5483 14.296 21.9003 14.296C22.6043 14.296 23.1103 14.1603 23.4183 13.889C23.7336 13.6103 23.8913 13.229 23.8913 12.745C23.8913 12.415 23.8033 12.151 23.6273 11.953C23.4586 11.7477 23.2093 11.5973 22.8793 11.502C22.5493 11.4067 22.1533 11.359 21.6913 11.359H20.9323V10.534H21.7023C22.1349 10.534 22.4943 10.4717 22.7803 10.347C23.0736 10.2223 23.2936 10.05 23.4403 9.83C23.5943 9.60267 23.6713 9.34233 23.6713 9.049C23.6713 8.66767 23.5429 8.37433 23.2863 8.169C23.0296 7.95633 22.6813 7.85 22.2413 7.85C21.9626 7.85 21.7096 7.87933 21.4823 7.938C21.2549 7.98933 21.0423 8.06633 20.8443 8.169C20.6536 8.26433 20.4593 8.378 20.2613 8.51L19.7773 7.85C19.9679 7.70333 20.1843 7.56767 20.4263 7.443C20.6756 7.31833 20.9506 7.21933 21.2513 7.146C21.5519 7.07267 21.8783 7.036 22.2303 7.036C23.0516 7.036 23.6603 7.21933 24.0563 7.586C24.4596 7.95267 24.6613 8.41833 24.6613 8.983Z" fill="white"/>
<defs>
<filter id="filter0_d_3_39" x="0" y="0" width="36" height="30" filterUnits="userSpaceOnUse" color-interpolation-filters="sRGB">
<feFlood flood-opacity="0" result="BackgroundImageFix"/>
<feColorMatrix in="SourceAlpha" type="matrix" values="0 0 0 0 0 0 0 0 0 0 0 0 0 0 0 0 0 0 127 0" result="hardAlpha"/>
<feOffset dy="4"/>
<feGaussianBlur stdDeviation="2"/>
<feComposite in2="hardAlpha" operator="out"/>
<feColorMatrix type="matrix" values="0 0 0 0 0 0 0 0 0 0 0 0 0 0 0 0 0 0 0.25 0"/>
<feBlend mode="normal" in2="BackgroundImageFix" result="effect1_dropShadow_3_39"/>
<feBlend mode="normal" in="SourceGraphic" in2="effect1_dropShadow_3_39" result="shape"/>
</filter>
</defs>
</svg>
