<svg width="30" height="30" viewBox="0 0 30 30" fill="none" xmlns="http://www.w3.org/2000/svg">
<g filter="url(#filter0_d_3_40)">
<mask id="path-1-outside-1_3_40" maskUnits="userSpaceOnUse" x="4" y="0" width="22" height="22" fill="black">
<rect fill="white" x="4" width="22" height="22"/>
<path d="M6 5C6 3.34315 7.34315 2 9 2H21C22.6569 2 24 3.34315 24 5V17C24 18.6569 22.6569 20 21 20H9C7.34315 20 6 18.6569 6 17V5Z"/>
</mask>
<path d="M9 4H21V0H9V4ZM22 5V17H26V5H22ZM21 18H9V22H21V18ZM8 17V5H4V17H8ZM9 18C8.44772 18 8 17.5523 8 17H4C4 19.7614 6.23858 22 9 22V18ZM22 17C22 17.5523 21.5523 18 21 18V22C23.7614 22 26 19.7614 26 17H22ZM21 4C21.5523 4 22 4.44772 22 5H26C26 2.23858 23.7614 0 21 0V4ZM9 0C6.23858 0 4 2.23858 4 5H8C8 4.44772 8.44772 4 9 4V0Z" fill="white" mask="url(#path-1-outside-1_3_40)"/>
</g>
<path d="M10.905 15H9.959V9.511C9.959 9.29833 9.959 9.11867 9.959 8.972C9.96633 8.82533 9.97367 8.68967 9.981 8.565C9.98833 8.433 9.99567 8.29733 10.003 8.158C9.88567 8.27533 9.77933 8.37433 9.684 8.455C9.58867 8.53567 9.46767 8.63833 9.321 8.763L8.485 9.445L7.979 8.796L10.102 7.146H10.905V15ZM14.0869 14.406C14.0869 14.1347 14.1529 13.944 14.2849 13.834C14.4169 13.724 14.5746 13.669 14.7579 13.669C14.9486 13.669 15.1099 13.724 15.2419 13.834C15.3813 13.944 15.4509 14.1347 15.4509 14.406C15.4509 14.67 15.3813 14.8607 15.2419 14.978C15.1099 15.0953 14.9486 15.154 14.7579 15.154C14.5746 15.154 14.4169 15.0953 14.2849 14.978C14.1529 14.8607 14.0869 14.67 14.0869 14.406ZM14.0869 9.698C14.0869 9.41933 14.1529 9.225 14.2849 9.115C14.4169 9.005 14.5746 8.95 14.7579 8.95C14.9486 8.95 15.1099 9.005 15.2419 9.115C15.3813 9.225 15.4509 9.41933 15.4509 9.698C15.4509 9.962 15.3813 10.1527 15.2419 10.27C15.1099 10.3873 14.9486 10.446 14.7579 10.446C14.5746 10.446 14.4169 10.3873 14.2849 10.27C14.1529 10.1527 14.0869 9.962 14.0869 9.698ZM20.1433 15H19.1973V9.511C19.1973 9.29833 19.1973 9.11867 19.1973 8.972C19.2046 8.82533 19.2119 8.68967 19.2193 8.565C19.2266 8.433 19.2339 8.29733 19.2413 8.158C19.1239 8.27533 19.0176 8.37433 18.9223 8.455C18.8269 8.53567 18.7059 8.63833 18.5593 8.763L17.7233 9.445L17.2173 8.796L19.3403 7.146H20.1433V15Z" fill="white"/>
<defs>
<filter id="filter0_d_3_40" x="0" y="0" width="30" height="30" filterUnits="userSpaceOnUse" color-interpolation-filters="sRGB">
<feFlood flood-opacity="0" result="BackgroundImageFix"/>
<feColorMatrix in="SourceAlpha" type="matrix" values="0 0 0 0 0 0 0 0 0 0 0 0 0 0 0 0 0 0 127 0" result="hardAlpha"/>
<feOffset dy="4"/>
<feGaussianBlur stdDeviation="2"/>
<feComposite in2="hardAlpha" operator="out"/>
<feColorMatrix type="matrix" values="0 0 0 0 0 0 0 0 0 0 0 0 0 0 0 0 0 0 0.25 0"/>
<feBlend mode="normal" in2="BackgroundImageFix" result="effect1_dropShadow_3_40"/>
<feBlend mode="normal" in="SourceGraphic" in2="effect1_dropShadow_3_40" result="shape"/>
</filter>
</defs>
</svg>
