<svg width="538" height="242" viewBox="0 0 538 242" fill="none" xmlns="http://www.w3.org/2000/svg">
<path fill-rule="evenodd" clip-rule="evenodd" d="M323.279 20.5233L311.036 35.2144C311.405 35.4637 311.757 35.7377 312.088 36.0354L343.516 64.3211C343.847 64.6191 344.152 64.9357 344.429 65.2681L360.753 54.2497C364.577 51.6677 364.975 46.6352 361.594 43.5924L335.12 19.7659C331.739 16.723 326.148 17.0806 323.279 20.5233ZM268.851 51.1509L259.302 105.578L282.484 84.7141L280.063 82.5357C278.146 80.8097 278.146 78.0113 280.063 76.2853C281.981 74.5593 285.09 74.5593 287.008 76.2853L298.794 86.8923C300.712 88.6184 300.712 91.4166 298.794 93.1427C296.876 94.8689 293.767 94.8689 291.849 93.1427L289.429 90.9647L266.247 111.828L326.721 103.234C330.218 102.737 332.914 100.197 333.305 97.0306L336.571 70.5714L305.143 42.2857L275.744 45.2256C272.226 45.5775 269.403 48.0037 268.851 51.1509Z" fill="url(#paint0_radial_1_33)"/>
<path d="M15.625 84.375C16.4583 84.25 18.25 82.4583 21 79C23.75 75.5417 25.125 72.8333 25.125 70.875C25.125 70.5833 25.0208 70.25 24.8125 69.875C23.9792 70.7083 22.2292 73.0833 19.5625 77C16.9375 80.9167 15.625 83.375 15.625 84.375ZM40.5 93.6875C42.5833 91.4375 43.75 91.0417 44 92.5C44 93.0417 43.6667 93.9375 43 95.1875C40.9583 98.9792 37.8333 103 33.625 107.25C26.9583 114 21.0625 117.375 15.9375 117.375C13.5208 117.375 11.4583 116.688 9.75 115.312C6.54167 112.688 4.9375 108.125 4.9375 101.625C4.9375 97.9167 6.0625 92.7083 8.3125 86C10.6042 79.25 14.1042 73.1458 18.8125 67.6875C20.8958 65.0208 23.0625 63.6875 25.3125 63.6875C26.3958 63.6875 27.5208 63.9167 28.6875 64.375C31.4375 65.5 32.8125 67.3125 32.8125 69.8125C32.8125 70.1875 32.6875 70.7917 32.4375 71.625C30.7292 75 27.9792 78.8958 24.1875 83.3125C20.3958 87.7292 16.5417 91.25 12.625 93.875C11.2917 98.7083 10.625 102.479 10.625 105.188C10.625 107.896 10.6875 109.625 10.8125 110.375C11.1875 112.125 12.5833 113 15 113C17.4167 113 20.2083 111.896 23.375 109.688C26.5417 107.438 29.9167 104.479 33.5 100.812C37.0833 97.1458 39.1042 95.0833 39.5625 94.625C40.0625 94.1667 40.375 93.8542 40.5 93.6875ZM95.625 33.125C87.875 45.875 79.9792 64.2292 71.9375 88.1875C71.9375 88.1875 71.0833 90.6042 69.375 95.4375C64.9167 107.729 62.6667 115.812 62.625 119.688C62.7083 120.354 63.375 121.271 64.625 122.438C65.8333 123.396 66.4375 124.312 66.4375 125.188C66.3542 127.562 65.4583 128.875 63.75 129.125C62.7083 129.125 61.7708 128.75 60.9375 128C59.2708 126.458 58.4375 123.958 58.4375 120.5C58.4375 114.083 59.7917 107.042 62.5 99.375C65.25 91.6667 66.875 86.875 67.375 85L60.9375 93.4375C55.1875 100.979 49.9583 107.042 45.25 111.625C44.875 111.833 43.7917 112.688 42 114.188C40.25 115.646 38.125 116.375 35.625 116.375C34.9167 116.375 34.2708 116.25 33.6875 116C31.6458 115.167 30.625 113.292 30.625 110.375C30.625 108.875 32 105.625 34.75 100.625C37.5 95.625 42.2083 89.125 48.875 81.125C55.5833 73.125 60.1458 68.625 62.5625 67.625C65.0208 66.625 67.625 66.125 70.375 66.125C71.4583 65.375 72.6042 64.2917 73.8125 62.875C75.0208 61.4583 76.4583 59 78.125 55.5L81.375 48.625C82.0833 47.2083 83.3333 44.5417 85.125 40.625C86.9167 36.6667 88.3333 33.6458 89.375 31.5625C93.6667 22.9792 97.2292 18.6875 100.062 18.6875C102.854 18.7292 104.292 20.1042 104.375 22.8125C104.375 24.8542 103.521 27.0833 101.812 29.5C100.104 31.9167 98.0417 33.125 95.625 33.125ZM64.875 76.3125C65.2917 75.0625 65.5 74.2292 65.5 73.8125C65.5 73.3542 65.4167 73.0833 65.25 73C64.9583 73 63.6667 74.1042 61.375 76.3125C52.2917 84.8125 44.875 94 39.125 103.875C37.7917 106.208 37.125 107.688 37.125 108.312C37.125 108.938 37.2708 109.292 37.5625 109.375C37.9375 109.375 38.5208 109.104 39.3125 108.562C42.2708 106.562 46.8125 102 52.9375 94.875C59.0625 87.75 63.0417 81.5625 64.875 76.3125ZM96.9375 57.375C96.7292 57.2917 96.2083 56.9583 95.375 56.375C94.375 55.6667 93.875 55.1458 93.875 54.8125C93.875 53.6875 95.4375 51.0417 98.5625 46.875C101.688 42.7083 103.458 40.2083 103.875 39.375C104.917 38.3333 106.354 38.8542 108.188 40.9375C109.646 42.6875 110.104 44.1042 109.562 45.1875C109.271 46.2708 107.5 48.5625 104.25 52.0625C101 55.5625 98.5625 57.3333 96.9375 57.375ZM111.875 96.625C110.333 100.958 107.271 105.375 102.688 109.875C97.2708 115.208 92.7292 117.875 89.0625 117.875C84.1042 117.875 81 115.062 79.75 109.438C79.375 107.729 79.1875 105.875 79.1875 103.875C79.1458 97.4167 80.375 89.9375 82.875 81.4375C86 70.6875 88.9583 65.3125 91.75 65.3125C93.125 65.3125 94.125 65.6458 94.75 66.3125C95.4167 66.9375 95.75 67.3958 95.75 67.6875C95.75 69.0208 94.3958 72.3125 91.6875 77.5625C88.9792 82.7708 87.2917 86.5625 86.625 88.9375C86 91.2708 85.5208 94.3333 85.1875 98.125C84.8958 101.875 84.75 104.292 84.75 105.375C84.75 109.042 85.1875 111.333 86.0625 112.25C86.9792 113.167 88.0833 113.646 89.375 113.688C93.0417 113.688 97.4167 110.5 102.5 104.125C104.958 101 106.875 98.125 108.25 95.5C108.875 94.5 109.521 94 110.188 94C111.312 94.1667 111.938 94.7292 112.062 95.6875C112.062 95.8125 112 96.125 111.875 96.625ZM128.688 66.6875L151.125 66.1875C151.583 66.1875 152.083 66.6042 152.625 67.4375C153.167 68.2292 153.458 69.3125 153.5 70.6875C153.458 71.6042 152.271 72.0833 149.938 72.125C143.021 72.2917 134.646 73.125 124.812 74.625C124.104 76.6667 122.958 79.6042 121.375 83.4375C114.417 100.271 110.938 112.083 110.938 118.875C110.938 122.25 111.583 125.5 112.875 128.625C115.125 133.875 118.479 136.5 122.938 136.5C126.396 136.5 129.292 135.604 131.625 133.812C134 132.062 136.792 129.167 140 125.125C141 123.833 142.042 123.375 143.125 123.75C144.167 124.208 144.688 125.104 144.688 126.438C144.688 130.271 142.479 133.458 138.062 136C133.646 138.583 128.896 139.875 123.812 139.875C118.771 139.875 114.396 138.021 110.688 134.312C107.021 130.604 105.188 125.667 105.188 119.5C105.188 115.375 105.708 110.958 106.75 106.25C107.792 101.542 109.688 95.6875 112.438 88.6875C115.188 81.6458 116.979 76.9583 117.812 74.625C109.188 74.625 104.375 74.5208 103.375 74.3125C100.292 73.6458 98.7292 72.3333 98.6875 70.375C98.7292 69.75 99.2083 69.3542 100.125 69.1875L120.438 67.5L133.812 45C135.354 42.4167 136.75 41.125 138 41.125C138.5 41.125 139.083 41.2083 139.75 41.375C142.208 41.9167 143.438 42.8125 143.438 44.0625C143.438 45.2708 142.188 47.1458 139.688 49.6875C137.188 52.2292 135.646 53.8542 135.062 54.5625C133.104 56.9792 130.979 61.0208 128.688 66.6875ZM160.5 78.625C150.125 83.0833 143.792 85.3125 141.5 85.3125C140.208 85.2708 139.542 84.625 139.5 83.375C139.5 82.0833 140.583 80 142.75 77.125L142.812 77C150.104 67.2083 158.792 56.9375 168.875 46.1875C169.667 45.3542 170.188 44.8958 170.438 44.8125C170.729 44.7292 171.125 44.6875 171.625 44.6875C174.375 44.6875 176.25 45.1042 177.25 45.9375C178.625 47.0625 179.104 48.125 178.688 49.125C176.479 55 172.292 65.3958 166.125 80.3125L153.625 111C151.875 115.458 150.604 117.792 149.812 118C149.479 117.917 149.312 117.312 149.312 116.188C149.312 109.938 152.083 99.8542 157.625 85.9375L158.938 82.625C159.688 80.75 160.208 79.4167 160.5 78.625ZM162.875 71.375L166 64.25C168.167 59.4583 169.562 56.1458 170.188 54.3125L150.875 76.1875L162.875 71.375ZM173.812 118.812C171.229 118.729 171.042 117.771 173.25 115.938C173.625 115.646 173.896 115.396 174.062 115.188C177.521 112.021 179.896 109.021 181.188 106.188C181.729 104.854 186.896 88.2292 196.688 56.3125L196.75 56.25V56.125C196.875 55.6667 197.146 54.5625 197.562 52.8125C199.062 45.8125 200.375 41.625 201.5 40.25C202.667 38.875 203.667 38.1875 204.5 38.1875C206.5 38.3542 207.583 38.9583 207.75 40C207.75 40.2083 207.562 41.0208 207.188 42.4375C203.979 53.1875 202.375 61.375 202.375 67C202.375 67.75 202.708 68.4792 203.375 69.1875C204.042 69.8958 204.438 70.25 204.562 70.25C205.688 70.1667 207.812 66.4583 210.938 59.125C214.104 51.75 216.104 47.25 216.938 45.625C217.771 43.9583 218.479 43.125 219.062 43.125C220.729 43.125 221.833 43.375 222.375 43.875C222.958 44.3333 223.25 44.6667 223.25 44.875C223.292 45.0417 222.875 46.2917 222 48.625C221.125 50.9167 218.229 60.125 213.312 76.25C208.438 92.3333 205.417 102.938 204.25 108.062C203.125 113.188 202.562 116.979 202.562 119.438C202.604 120.229 203.25 121.042 204.5 121.875C206 122.875 206.729 123.812 206.688 124.688C206.646 127.396 205.833 128.771 204.25 128.812C200.333 128.771 198.375 125.104 198.375 117.812C198.375 111.938 199.646 104.708 202.188 96.125C205.188 86 206.688 80.6042 206.688 79.9375C206.104 81.4375 205.208 82.6875 204 83.6875C202.833 84.6875 201.812 85.1875 200.938 85.1875C200.104 85.1875 199.125 84.5 198 83.125C196.917 81.75 196.354 80.625 196.312 79.75C196.271 78.875 196.271 78.2917 196.312 78C195.521 79.6667 193.979 84.6667 191.688 93C189.396 101.333 187.021 107.479 184.562 111.438C181.521 116.354 177.938 118.812 173.812 118.812ZM231.75 84.375C232.583 84.25 234.375 82.4583 237.125 79C239.875 75.5417 241.25 72.8333 241.25 70.875C241.25 70.5833 241.146 70.25 240.938 69.875C240.104 70.7083 238.354 73.0833 235.688 77C233.062 80.9167 231.75 83.375 231.75 84.375ZM256.625 93.6875C258.708 91.4375 259.875 91.0417 260.125 92.5C260.125 93.0417 259.792 93.9375 259.125 95.1875C257.083 98.9792 253.958 103 249.75 107.25C243.083 114 237.188 117.375 232.062 117.375C229.646 117.375 227.583 116.688 225.875 115.312C222.667 112.688 221.062 108.125 221.062 101.625C221.062 97.9167 222.188 92.7083 224.438 86C226.729 79.25 230.229 73.1458 234.938 67.6875C237.021 65.0208 239.188 63.6875 241.438 63.6875C242.521 63.6875 243.646 63.9167 244.812 64.375C247.562 65.5 248.938 67.3125 248.938 69.8125C248.938 70.1875 248.812 70.7917 248.562 71.625C246.854 75 244.104 78.8958 240.312 83.3125C236.521 87.7292 232.667 91.25 228.75 93.875C227.417 98.7083 226.75 102.479 226.75 105.188C226.75 107.896 226.812 109.625 226.938 110.375C227.312 112.125 228.708 113 231.125 113C233.542 113 236.333 111.896 239.5 109.688C242.667 107.438 246.042 104.479 249.625 100.812C253.208 97.1458 255.229 95.0833 255.688 94.625C256.188 94.1667 256.5 93.8542 256.625 93.6875Z" fill="white"/>
<path d="M15.625 84.375C16.4583 84.25 18.25 82.4583 21 79C23.75 75.5417 25.125 72.8333 25.125 70.875C25.125 70.5833 25.0208 70.25 24.8125 69.875C23.9792 70.7083 22.2292 73.0833 19.5625 77C16.9375 80.9167 15.625 83.375 15.625 84.375ZM40.5 93.6875C42.5833 91.4375 43.75 91.0417 44 92.5C44 93.0417 43.6667 93.9375 43 95.1875C40.9583 98.9792 37.8333 103 33.625 107.25C26.9583 114 21.0625 117.375 15.9375 117.375C13.5208 117.375 11.4583 116.688 9.75 115.312C6.54167 112.688 4.9375 108.125 4.9375 101.625C4.9375 97.9167 6.0625 92.7083 8.3125 86C10.6042 79.25 14.1042 73.1458 18.8125 67.6875C20.8958 65.0208 23.0625 63.6875 25.3125 63.6875C26.3958 63.6875 27.5208 63.9167 28.6875 64.375C31.4375 65.5 32.8125 67.3125 32.8125 69.8125C32.8125 70.1875 32.6875 70.7917 32.4375 71.625C30.7292 75 27.9792 78.8958 24.1875 83.3125C20.3958 87.7292 16.5417 91.25 12.625 93.875C11.2917 98.7083 10.625 102.479 10.625 105.188C10.625 107.896 10.6875 109.625 10.8125 110.375C11.1875 112.125 12.5833 113 15 113C17.4167 113 20.2083 111.896 23.375 109.688C26.5417 107.438 29.9167 104.479 33.5 100.812C37.0833 97.1458 39.1042 95.0833 39.5625 94.625C40.0625 94.1667 40.375 93.8542 40.5 93.6875ZM95.625 33.125C87.875 45.875 79.9792 64.2292 71.9375 88.1875C71.9375 88.1875 71.0833 90.6042 69.375 95.4375C64.9167 107.729 62.6667 115.812 62.625 119.688C62.7083 120.354 63.375 121.271 64.625 122.438C65.8333 123.396 66.4375 124.312 66.4375 125.188C66.3542 127.562 65.4583 128.875 63.75 129.125C62.7083 129.125 61.7708 128.75 60.9375 128C59.2708 126.458 58.4375 123.958 58.4375 120.5C58.4375 114.083 59.7917 107.042 62.5 99.375C65.25 91.6667 66.875 86.875 67.375 85L60.9375 93.4375C55.1875 100.979 49.9583 107.042 45.25 111.625C44.875 111.833 43.7917 112.688 42 114.188C40.25 115.646 38.125 116.375 35.625 116.375C34.9167 116.375 34.2708 116.25 33.6875 116C31.6458 115.167 30.625 113.292 30.625 110.375C30.625 108.875 32 105.625 34.75 100.625C37.5 95.625 42.2083 89.125 48.875 81.125C55.5833 73.125 60.1458 68.625 62.5625 67.625C65.0208 66.625 67.625 66.125 70.375 66.125C71.4583 65.375 72.6042 64.2917 73.8125 62.875C75.0208 61.4583 76.4583 59 78.125 55.5L81.375 48.625C82.0833 47.2083 83.3333 44.5417 85.125 40.625C86.9167 36.6667 88.3333 33.6458 89.375 31.5625C93.6667 22.9792 97.2292 18.6875 100.062 18.6875C102.854 18.7292 104.292 20.1042 104.375 22.8125C104.375 24.8542 103.521 27.0833 101.812 29.5C100.104 31.9167 98.0417 33.125 95.625 33.125ZM64.875 76.3125C65.2917 75.0625 65.5 74.2292 65.5 73.8125C65.5 73.3542 65.4167 73.0833 65.25 73C64.9583 73 63.6667 74.1042 61.375 76.3125C52.2917 84.8125 44.875 94 39.125 103.875C37.7917 106.208 37.125 107.688 37.125 108.312C37.125 108.938 37.2708 109.292 37.5625 109.375C37.9375 109.375 38.5208 109.104 39.3125 108.562C42.2708 106.562 46.8125 102 52.9375 94.875C59.0625 87.75 63.0417 81.5625 64.875 76.3125ZM96.9375 57.375C96.7292 57.2917 96.2083 56.9583 95.375 56.375C94.375 55.6667 93.875 55.1458 93.875 54.8125C93.875 53.6875 95.4375 51.0417 98.5625 46.875C101.688 42.7083 103.458 40.2083 103.875 39.375C104.917 38.3333 106.354 38.8542 108.188 40.9375C109.646 42.6875 110.104 44.1042 109.562 45.1875C109.271 46.2708 107.5 48.5625 104.25 52.0625C101 55.5625 98.5625 57.3333 96.9375 57.375ZM111.875 96.625C110.333 100.958 107.271 105.375 102.688 109.875C97.2708 115.208 92.7292 117.875 89.0625 117.875C84.1042 117.875 81 115.062 79.75 109.438C79.375 107.729 79.1875 105.875 79.1875 103.875C79.1458 97.4167 80.375 89.9375 82.875 81.4375C86 70.6875 88.9583 65.3125 91.75 65.3125C93.125 65.3125 94.125 65.6458 94.75 66.3125C95.4167 66.9375 95.75 67.3958 95.75 67.6875C95.75 69.0208 94.3958 72.3125 91.6875 77.5625C88.9792 82.7708 87.2917 86.5625 86.625 88.9375C86 91.2708 85.5208 94.3333 85.1875 98.125C84.8958 101.875 84.75 104.292 84.75 105.375C84.75 109.042 85.1875 111.333 86.0625 112.25C86.9792 113.167 88.0833 113.646 89.375 113.688C93.0417 113.688 97.4167 110.5 102.5 104.125C104.958 101 106.875 98.125 108.25 95.5C108.875 94.5 109.521 94 110.188 94C111.312 94.1667 111.938 94.7292 112.062 95.6875C112.062 95.8125 112 96.125 111.875 96.625ZM128.688 66.6875L151.125 66.1875C151.583 66.1875 152.083 66.6042 152.625 67.4375C153.167 68.2292 153.458 69.3125 153.5 70.6875C153.458 71.6042 152.271 72.0833 149.938 72.125C143.021 72.2917 134.646 73.125 124.812 74.625C124.104 76.6667 122.958 79.6042 121.375 83.4375C114.417 100.271 110.938 112.083 110.938 118.875C110.938 122.25 111.583 125.5 112.875 128.625C115.125 133.875 118.479 136.5 122.938 136.5C126.396 136.5 129.292 135.604 131.625 133.812C134 132.062 136.792 129.167 140 125.125C141 123.833 142.042 123.375 143.125 123.75C144.167 124.208 144.688 125.104 144.688 126.438C144.688 130.271 142.479 133.458 138.062 136C133.646 138.583 128.896 139.875 123.812 139.875C118.771 139.875 114.396 138.021 110.688 134.312C107.021 130.604 105.188 125.667 105.188 119.5C105.188 115.375 105.708 110.958 106.75 106.25C107.792 101.542 109.688 95.6875 112.438 88.6875C115.188 81.6458 116.979 76.9583 117.812 74.625C109.188 74.625 104.375 74.5208 103.375 74.3125C100.292 73.6458 98.7292 72.3333 98.6875 70.375C98.7292 69.75 99.2083 69.3542 100.125 69.1875L120.438 67.5L133.812 45C135.354 42.4167 136.75 41.125 138 41.125C138.5 41.125 139.083 41.2083 139.75 41.375C142.208 41.9167 143.438 42.8125 143.438 44.0625C143.438 45.2708 142.188 47.1458 139.688 49.6875C137.188 52.2292 135.646 53.8542 135.062 54.5625C133.104 56.9792 130.979 61.0208 128.688 66.6875ZM160.5 78.625C150.125 83.0833 143.792 85.3125 141.5 85.3125C140.208 85.2708 139.542 84.625 139.5 83.375C139.5 82.0833 140.583 80 142.75 77.125L142.812 77C150.104 67.2083 158.792 56.9375 168.875 46.1875C169.667 45.3542 170.188 44.8958 170.438 44.8125C170.729 44.7292 171.125 44.6875 171.625 44.6875C174.375 44.6875 176.25 45.1042 177.25 45.9375C178.625 47.0625 179.104 48.125 178.688 49.125C176.479 55 172.292 65.3958 166.125 80.3125L153.625 111C151.875 115.458 150.604 117.792 149.812 118C149.479 117.917 149.312 117.312 149.312 116.188C149.312 109.938 152.083 99.8542 157.625 85.9375L158.938 82.625C159.688 80.75 160.208 79.4167 160.5 78.625ZM162.875 71.375L166 64.25C168.167 59.4583 169.562 56.1458 170.188 54.3125L150.875 76.1875L162.875 71.375ZM173.812 118.812C171.229 118.729 171.042 117.771 173.25 115.938C173.625 115.646 173.896 115.396 174.062 115.188C177.521 112.021 179.896 109.021 181.188 106.188C181.729 104.854 186.896 88.2292 196.688 56.3125L196.75 56.25V56.125C196.875 55.6667 197.146 54.5625 197.562 52.8125C199.062 45.8125 200.375 41.625 201.5 40.25C202.667 38.875 203.667 38.1875 204.5 38.1875C206.5 38.3542 207.583 38.9583 207.75 40C207.75 40.2083 207.562 41.0208 207.188 42.4375C203.979 53.1875 202.375 61.375 202.375 67C202.375 67.75 202.708 68.4792 203.375 69.1875C204.042 69.8958 204.438 70.25 204.562 70.25C205.688 70.1667 207.812 66.4583 210.938 59.125C214.104 51.75 216.104 47.25 216.938 45.625C217.771 43.9583 218.479 43.125 219.062 43.125C220.729 43.125 221.833 43.375 222.375 43.875C222.958 44.3333 223.25 44.6667 223.25 44.875C223.292 45.0417 222.875 46.2917 222 48.625C221.125 50.9167 218.229 60.125 213.312 76.25C208.438 92.3333 205.417 102.938 204.25 108.062C203.125 113.188 202.562 116.979 202.562 119.438C202.604 120.229 203.25 121.042 204.5 121.875C206 122.875 206.729 123.812 206.688 124.688C206.646 127.396 205.833 128.771 204.25 128.812C200.333 128.771 198.375 125.104 198.375 117.812C198.375 111.938 199.646 104.708 202.188 96.125C205.188 86 206.688 80.6042 206.688 79.9375C206.104 81.4375 205.208 82.6875 204 83.6875C202.833 84.6875 201.812 85.1875 200.938 85.1875C200.104 85.1875 199.125 84.5 198 83.125C196.917 81.75 196.354 80.625 196.312 79.75C196.271 78.875 196.271 78.2917 196.312 78C195.521 79.6667 193.979 84.6667 191.688 93C189.396 101.333 187.021 107.479 184.562 111.438C181.521 116.354 177.938 118.812 173.812 118.812ZM231.75 84.375C232.583 84.25 234.375 82.4583 237.125 79C239.875 75.5417 241.25 72.8333 241.25 70.875C241.25 70.5833 241.146 70.25 240.938 69.875C240.104 70.7083 238.354 73.0833 235.688 77C233.062 80.9167 231.75 83.375 231.75 84.375ZM256.625 93.6875C258.708 91.4375 259.875 91.0417 260.125 92.5C260.125 93.0417 259.792 93.9375 259.125 95.1875C257.083 98.9792 253.958 103 249.75 107.25C243.083 114 237.188 117.375 232.062 117.375C229.646 117.375 227.583 116.688 225.875 115.312C222.667 112.688 221.062 108.125 221.062 101.625C221.062 97.9167 222.188 92.7083 224.438 86C226.729 79.25 230.229 73.1458 234.938 67.6875C237.021 65.0208 239.188 63.6875 241.438 63.6875C242.521 63.6875 243.646 63.9167 244.812 64.375C247.562 65.5 248.938 67.3125 248.938 69.8125C248.938 70.1875 248.812 70.7917 248.562 71.625C246.854 75 244.104 78.8958 240.312 83.3125C236.521 87.7292 232.667 91.25 228.75 93.875C227.417 98.7083 226.75 102.479 226.75 105.188C226.75 107.896 226.812 109.625 226.938 110.375C227.312 112.125 228.708 113 231.125 113C233.542 113 236.333 111.896 239.5 109.688C242.667 107.438 246.042 104.479 249.625 100.812C253.208 97.1458 255.229 95.0833 255.688 94.625C256.188 94.1667 256.5 93.8542 256.625 93.6875Z" fill="url(#paint1_linear_1_33)"/>
<defs>
<radialGradient id="paint0_radial_1_33" cx="0" cy="0" r="1" gradientUnits="userSpaceOnUse" gradientTransform="translate(311.599 64.7614) rotate(90) scale(47.0669 52.2966)">
<stop stop-color="white"/>
<stop offset="0.611667" stop-color="#C3B7FF"/>
<stop offset="0.816667" stop-color="#A897FE"/>
<stop offset="1" stop-color="#8870FF"/>
</radialGradient>
<linearGradient id="paint1_linear_1_33" x1="269" y1="0" x2="269" y2="242" gradientUnits="userSpaceOnUse">
<stop stop-color="#C3B7FF" stop-opacity="0"/>
<stop offset="1" stop-color="#C3B7FF"/>
</linearGradient>
</defs>
</svg>
